<?xml version="1.0" encoding="iso-8859-1"?>
<!-- Uploaded to: SVG Repo, www.svgrepo.com, Generator: SVG Repo Mixer Tools -->
<svg fill="#000000" height="800px" width="800px" version="1.1" id="Layer_1" xmlns="http://www.w3.org/2000/svg" xmlns:xlink="http://www.w3.org/1999/xlink" 
	 viewBox="0 0 512 512" xml:space="preserve">
<g>
	<g>
		<path d="M145.067,162.133h-102.4c-4.71,0-8.533,3.823-8.533,8.533V230.4c0,4.71,3.823,8.533,8.533,8.533h102.4
			c4.71,0,8.533-3.823,8.533-8.533v-59.733C153.6,165.956,149.777,162.133,145.067,162.133z M51.2,221.867V179.2h85.333
			l0.009,42.667H51.2z"/>
	</g>
</g>
<g>
	<g>
		<path d="M358.4,162.133c-65.877,0-119.467,53.589-119.467,119.467S292.523,401.067,358.4,401.067S477.867,347.477,477.867,281.6
			S424.277,162.133,358.4,162.133z M358.4,384C301.935,384,256,338.065,256,281.6c0-56.465,45.935-102.4,102.4-102.4
			s102.4,45.935,102.4,102.4C460.8,338.065,414.865,384,358.4,384z"/>
	</g>
</g>
<g>
	<g>
		<path d="M358.4,196.267c-47.053,0-85.333,38.281-85.333,85.333s38.281,85.333,85.333,85.333s85.333-38.281,85.333-85.333
			S405.453,196.267,358.4,196.267z M358.4,349.867c-37.641,0-68.267-30.626-68.267-68.267c0-37.641,30.626-68.267,68.267-68.267
			c37.641,0,68.267,30.626,68.267,68.267C426.667,319.241,396.041,349.867,358.4,349.867z"/>
	</g>
</g>
<g>
	<g>
		<path d="M494.933,128h-30.592c-10.249-10.24-48.708-48.7-48.708-48.7c-1.596-1.604-3.772-2.5-6.033-2.5H307.2
			c-2.261,0-4.437,0.896-6.033,2.5l-48.7,48.7H128v-25.6c0-4.719-3.823-8.533-8.533-8.533h-51.2c-4.71,0-8.533,3.814-8.533,8.533
			V128H17.067C7.654,128,0,135.654,0,145.067v273.067c0,9.412,7.654,17.067,17.067,17.067h477.867
			c9.412,0,17.067-7.654,17.067-17.067V145.067C512,135.654,504.346,128,494.933,128z M76.8,110.933h34.133V128H76.8V110.933z
			 M494.942,418.133h-0.009H17.067V145.067H256c2.261,0,4.437-0.896,6.033-2.5l48.7-48.7h95.334c51.2,51.2,51.251,51.2,54.741,51.2
			h34.133V418.133z"/>
	</g>
</g>
</svg>