<svg width="24" height="24" viewBox="0 0 24 24" fill="none" xmlns="http://www.w3.org/2000/svg">
<path d="M13.4055 12.0012L18.6974 6.71219C19.0875 6.32226 19.0875 5.69238 18.6974 5.30245C18.3073 4.91252 17.677 4.91252 17.2869 5.30245L11.995 10.5915L6.70311 5.29245C6.31297 4.90252 5.68274 4.90252 5.2926 5.29245C4.90247 5.68238 4.90247 6.31227 5.2926 6.7022L10.5845 12.0012L5.2926 17.2903C4.90247 17.6802 4.90247 18.3101 5.2926 18.7001C5.48267 18.9 5.73276 19 5.99285 19C6.25295 19 6.50304 18.9 6.70311 18.7101L11.995 13.411L17.2869 18.7001C17.487 18.9 17.7371 19 17.9971 19C18.2572 19 18.5073 18.9 18.7074 18.7101C19.0975 18.3201 19.0975 17.6902 18.7074 17.3003L13.4055 12.0012Z" fill="#1F1D1D"/>
</svg>
