<?xml version="1.0" encoding="iso-8859-1"?>
<!-- Uploaded to: SVG Repo, www.svgrepo.com, Generator: SVG Repo Mixer Tools -->
<svg fill="#000000" height="800px" width="800px" version="1.1" id="Layer_1" xmlns="http://www.w3.org/2000/svg" xmlns:xlink="http://www.w3.org/1999/xlink" 
	 viewBox="0 0 492.308 492.308" xml:space="preserve">
<g>
	<g>
		<path d="M297.161,426.192l-17.082-74.769c9.332-9.091,14.577-21.351,14.577-34.505c0-26.75-21.76-48.51-48.505-48.51
			s-48.505,21.76-48.505,48.51c0,13.154,5.245,25.413,14.577,34.505l-17.082,74.769H297.161z M246.151,288.101
			c15.889,0,28.812,12.928,28.812,28.817c0,9.082-4.264,17.471-11.692,23.01l-5.144,3.837l14.332,62.736h-52.615l14.332-62.736
			l-5.144-3.837c-7.428-5.538-11.692-13.928-11.692-23.01C217.339,301.029,230.262,288.101,246.151,288.101z"/>
	</g>
</g>
<g>
	<g>
		<path d="M391.839,202.293v-56.606C391.839,65.356,326.483,0,246.151,0S100.469,65.356,100.469,145.687v56.606H39.325v290.014
			h413.659V202.293H391.839z M120.161,145.687c0-69.476,56.519-125.995,125.99-125.995c69.476,0,125.995,56.519,125.995,125.995
			v56.606h-45v-56.606c0-44.659-36.337-80.995-80.995-80.995c-44.659,0-80.995,36.337-80.995,80.995v56.606h-44.995V145.687z
			 M307.454,145.687v56.606H184.849v-56.606c0-33.803,27.5-61.303,61.303-61.303C279.954,84.385,307.454,111.885,307.454,145.687z
			 M433.291,276.37h-32.582v19.692h32.582v41.394h-32.582v19.692h32.582v41.389h-32.582v19.692h32.582v54.385H59.017v-54.385h32.587
			v-19.692H59.017v-41.389h32.587v-19.692H59.017v-41.394h32.587V276.37H59.017v-54.385h41.452h84.38h122.606h84.385h41.452V276.37z
			"/>
	</g>
</g>
</svg>