<svg width="24" height="24" viewBox="0 0 24 24" fill="none" xmlns="http://www.w3.org/2000/svg">
<g id="Pessoa">
<g id="Pessoa_2">
<path d="M19.59 15.72C18.65 14.63 17.34 14 16 14H8C6.66 14 5.35 14.63 4.41 15.72C3.5 16.78 3 18.18 3 19.67V21C3 21.55 3.45 22 4 22C4.55 22 5 21.55 5 21V19.67C5 18.68 5.34 17.71 5.93 17.02C6.49 16.36 7.23 16 8 16H16C16.77 16 17.51 16.36 18.07 17.02C18.66 17.71 19 18.68 19 19.67V21C19 21.55 19.45 22 20 22C20.55 22 21 21.55 21 21V19.67C21 18.18 20.5 16.78 19.59 15.72Z" fill="#1F1D1D"/>
<path d="M12 12C14.76 12 17 9.76 17 7C17 4.24 14.76 2 12 2C9.24 2 7 4.24 7 7C7 9.76 9.24 12 12 12ZM12 4C13.65 4 15 5.35 15 7C15 8.65 13.65 10 12 10C10.35 10 9 8.65 9 7C9 5.35 10.35 4 12 4Z" fill="#1F1D1D"/>
</g>
</g>
</svg>
